<svg width="125" height="24" viewBox="0 0 125 24" fill="none" xmlns="http://www.w3.org/2000/svg">
<path d="M12.5 0.781006L16.3206 7.28393L24.3882 8.53748L18.6819 13.8101L19.8473 21.0877L12.5 17.8434L5.15268 21.0877L6.31813 13.8101L0.611794 8.53748L8.6794 7.28393L12.5 0.781006Z" fill="#37DF9E"/>
<path d="M37.5 0.781006L41.3206 7.28393L49.3882 8.53748L43.6819 13.8101L44.8473 21.0877L37.5 17.8434L30.1527 21.0877L31.3181 13.8101L25.6118 8.53748L33.6794 7.28393L37.5 0.781006Z" fill="#37DF9E"/>
<path d="M62.5 0.781006L66.3206 7.28393L74.3882 8.53748L68.6819 13.8101L69.8473 21.0877L62.5 17.8434L55.1527 21.0877L56.3181 13.8101L50.6118 8.53748L58.6794 7.28393L62.5 0.781006Z" fill="#37DF9E"/>
<path d="M87.5 0.781006L91.3206 7.28393L99.3882 8.53748L93.6819 13.8101L94.8473 21.0877L87.5 17.8434L80.1527 21.0877L81.3181 13.8101L75.6118 8.53748L83.6794 7.28393L87.5 0.781006Z" fill="#37DF9E"/>
<path d="M112.5 0.781006L116.321 7.28393L124.388 8.53748L118.682 13.8101L119.847 21.0877L112.5 17.8434L105.153 21.0877L106.318 13.8101L100.612 8.53748L108.679 7.28393L112.5 0.781006Z" fill="#37DF9E"/>
</svg>
