<svg width="38" height="112" viewBox="0 0 38 112" fill="none" xmlns="http://www.w3.org/2000/svg">
<circle cx="34" cy="30" r="4" fill="#23483A"/>
<circle cx="19" cy="26" r="4" fill="#23483A"/>
<circle cx="4" cy="26" r="4" fill="#23483A"/>
<circle cx="34" cy="8" r="4" fill="#23483A"/>
<circle cx="34" cy="52" r="4" fill="#23483A"/>
<circle cx="34" cy="71" r="4" fill="#23483A"/>
<circle cx="34" cy="90" r="4" fill="#23483A"/>
<circle cx="34" cy="108" r="4" fill="#23483A"/>
<circle cx="19" cy="4" r="4" fill="#23483A"/>
<circle cx="19" cy="48" r="4" fill="#23483A"/>
<circle cx="19" cy="67" r="4" fill="#23483A"/>
<circle cx="19" cy="86" r="4" fill="#23483A"/>
<circle cx="19" cy="104" r="4" fill="#23483A"/>
<circle cx="4" cy="4" r="4" fill="#23483A"/>
<circle cx="4" cy="4" r="4" fill="#23483A"/>
<circle cx="4" cy="48" r="4" fill="#23483A"/>
<circle cx="4" cy="48" r="4" fill="#23483A"/>
<circle cx="4" cy="67" r="4" fill="#23483A"/>
<circle cx="4" cy="86" r="4" fill="#23483A"/>
<circle cx="4" cy="104" r="4" fill="#23483A"/>
<circle cx="4" cy="67" r="4" fill="#23483A"/>
</svg>
